<svg xmlns="http://www.w3.org/2000/svg" viewBox="0 0 256 238"><defs><linearGradient id="SVGjzk6ueva" x1="86.924%" x2="7.63%" y1="94.294%" y2="45.952%"><stop offset="9%" stop-color="#ffe921"/><stop offset="100%" stop-color="#fec700"/></linearGradient><linearGradient id="SVGb0f7AcFJ" x1="99.538%" x2="23.437%" y1="93.901%" y2="54.033%"><stop offset="15%" stop-color="#a9a8ff"/><stop offset="33%" stop-color="#6d97ff"/><stop offset="48%" stop-color="#3186ff"/></linearGradient><linearGradient id="SVGxMwz6dYk" x1="87.128%" x2="-.639%" y1="51.518%" y2="93.078%"><stop offset="55%" stop-color="#0ebc5f"/><stop offset="85%" stop-color="#78c9ff"/></linearGradient><path id="SVGAiIt3btS" d="M77.303 29.27c22.531-39.026 78.863-39.027 101.394 0l69.373 120.158c22.531 39.027-5.633 87.81-50.698 87.81H58.628c-45.065 0-73.23-48.783-50.698-87.81z"/></defs><mask id="SVG6FLXsceq" fill="#fff"><use href="#SVGAiIt3btS"/></mask><g mask="url(#SVG6FLXsceq)"><path fill="url(#SVGjzk6ueva)" d="M341.719 295.937H200.166l-29.293-50.735l70.777-122.589z" transform="translate(-42.87 -58.67)"/><path fill="url(#SVGb0f7AcFJ)" d="m0 295.916l100.069-173.325v.003l-29.282 50.723h58.57l70.783 122.596l-200.138.001z" transform="translate(-42.87 -58.67)"/><path fill="url(#SVGxMwz6dYk)" d="m170.881 0l70.781 122.6l-29.286 50.726H70.812z" transform="translate(-42.87 -58.67)"/></g></svg>